<?xml version="1.0" encoding="utf-8"?>
<!-- Generator: Adobe Illustrator 22.0.1, SVG Export Plug-In . SVG Version: 6.00 Build 0)  -->
<svg version="1.1" id="Layer_1" xmlns="http://www.w3.org/2000/svg" xmlns:xlink="http://www.w3.org/1999/xlink" x="0px" y="0px"
	 viewBox="0 0 774 96" style="enable-background:new 0 0 774 96;" xml:space="preserve">
<style type="text/css">
	.st0{opacity:0.5;}
	.st1{fill:none;stroke:#FFFFFF;stroke-miterlimit:10;}
	.st2{fill:none;stroke:#FFFFFF;stroke-miterlimit:10;stroke-dasharray:2,2;}
</style>
<g class="st0">
	<g>
		<path class="st1" d="M773.5,96c-0.1-0.1-0.2-0.3-0.3-0.4"/>
		<path class="st2" d="M772.5,94.8c-45.8-57-116.1-93.4-194.9-93.4c-76.1,0-144.3,34-190.2,87.7"/>
		<path class="st1" d="M387.2,89.5c-0.1,0.1-0.2,0.3-0.3,0.4c-0.1-0.1-0.2-0.3-0.3-0.4"/>
		<path class="st2" d="M385.9,88.8C340,35.3,272,1.4,196,1.4C117.1,1.4,46.7,38,0.8,95.2"/>
		<path class="st1" d="M0.5,95.6c-0.1,0.1-0.2,0.3-0.3,0.4"/>
	</g>
</g>
</svg>
